<svg width="24" height="24" viewBox="0 0 24 24" fill="none" xmlns="http://www.w3.org/2000/svg">
<path fill-rule="evenodd" clip-rule="evenodd" d="M5.00001 4.80001C4.94697 4.80001 4.8961 4.82108 4.85859 4.85859C4.82108 4.8961 4.80001 4.94697 4.80001 5.00001V9.00001C4.80001 9.05306 4.82108 9.10393 4.85859 9.14143C4.8961 9.17894 4.94697 9.20001 5.00001 9.20001H9.00001C9.05306 9.20001 9.10393 9.17894 9.14143 9.14143C9.17894 9.10393 9.20001 9.05306 9.20001 9.00001V5.00001C9.20001 4.94697 9.17894 4.8961 9.14143 4.85859C9.10393 4.82108 9.05306 4.80001 9.00001 4.80001H5.00001ZM3.72722 3.72722C4.06479 3.38966 4.52262 3.20001 5.00001 3.20001H9.00001C9.4774 3.20001 9.93524 3.38966 10.2728 3.72722C10.6104 4.06479 10.8 4.52262 10.8 5.00001V9.00001C10.8 9.4774 10.6104 9.93524 10.2728 10.2728C9.93524 10.6104 9.4774 10.8 9.00001 10.8H5.00001C4.52262 10.8 4.06479 10.6104 3.72722 10.2728C3.38966 9.93524 3.20001 9.4774 3.20001 9.00001V5.00001C3.20001 4.52262 3.38966 4.06479 3.72722 3.72722ZM17 3.20001C17.4418 3.20001 17.8 3.55818 17.8 4.00001V6.20001H20C20.4418 6.20001 20.8 6.55818 20.8 7.00001C20.8 7.44184 20.4418 7.80001 20 7.80001H17.8V10C17.8 10.4418 17.4418 10.8 17 10.8C16.5582 10.8 16.2 10.4418 16.2 10V7.80001H14C13.5582 7.80001 13.2 7.44184 13.2 7.00001C13.2 6.55818 13.5582 6.20001 14 6.20001H16.2V4.00001C16.2 3.55818 16.5582 3.20001 17 3.20001ZM5.00001 14.8C4.94697 14.8 4.8961 14.8211 4.85859 14.8586C4.82108 14.8961 4.80001 14.947 4.80001 15V19C4.80001 19.0531 4.82108 19.1039 4.85859 19.1414C4.8961 19.1789 4.94697 19.2 5.00001 19.2H9.00001C9.05306 19.2 9.10393 19.1789 9.14143 19.1414C9.17894 19.1039 9.20001 19.0531 9.20001 19V15C9.20001 14.947 9.17894 14.8961 9.14143 14.8586C9.10393 14.8211 9.05306 14.8 9.00001 14.8H5.00001ZM3.72722 13.7272C4.06479 13.3897 4.52262 13.2 5.00001 13.2H9.00001C9.4774 13.2 9.93524 13.3897 10.2728 13.7272C10.6104 14.0648 10.8 14.5226 10.8 15V19C10.8 19.4774 10.6104 19.9352 10.2728 20.2728C9.93524 20.6104 9.4774 20.8 9.00001 20.8H5.00001C4.52262 20.8 4.06479 20.6104 3.72722 20.2728C3.38965 19.9352 3.20001 19.4774 3.20001 19V15C3.20001 14.5226 3.38966 14.0648 3.72722 13.7272ZM15 14.8C14.947 14.8 14.8961 14.8211 14.8586 14.8586C14.8211 14.8961 14.8 14.947 14.8 15V19C14.8 19.0531 14.8211 19.1039 14.8586 19.1414C14.8961 19.1789 14.947 19.2 15 19.2H19C19.0531 19.2 19.1039 19.1789 19.1414 19.1414C19.1789 19.1039 19.2 19.0531 19.2 19V15C19.2 14.947 19.1789 14.8961 19.1414 14.8586C19.1039 14.8211 19.0531 14.8 19 14.8H15ZM13.7272 13.7272C14.0648 13.3897 14.5226 13.2 15 13.2H19C19.4774 13.2 19.9352 13.3897 20.2728 13.7272C20.6104 14.0648 20.8 14.5226 20.8 15V19C20.8 19.4774 20.6104 19.9352 20.2728 20.2728C19.9352 20.6104 19.4774 20.8 19 20.8H15C14.5226 20.8 14.0648 20.6104 13.7272 20.2728C13.3897 19.9352 13.2 19.4774 13.2 19V15C13.2 14.5226 13.3897 14.0648 13.7272 13.7272Z" fill="#687485"/>
</svg>
