<svg viewBox="0 0 24 24" fill="none" xmlns="http://www.w3.org/2000/svg">
<path fill-rule="evenodd" clip-rule="evenodd" d="M10.9003 20.361C13.2356 20.361 15.4752 19.4333 17.1264 17.782C18.7777 16.1308 19.7053 13.8912 19.7053 11.556C19.7053 9.22072 18.7777 6.98113 17.1264 5.32988C15.4752 3.67862 13.2356 2.75095 10.9003 2.75095C8.5651 2.75095 6.32552 3.67862 4.67426 5.32988C3.023 6.98113 2.09534 9.22072 2.09534 11.556C2.09534 13.8912 3.023 16.1308 4.67426 17.782C6.32552 19.4333 8.5651 20.361 10.9003 20.361ZM10.9003 22.011C16.6743 22.011 21.3553 17.331 21.3553 11.556C21.3553 5.78195 16.6743 1.10095 10.8993 1.10095C5.12534 1.09995 0.444336 5.77995 0.444336 11.556C0.444336 17.332 5.12434 22.012 10.8993 22.012L10.9003 22.011Z" fill="#687485"/>
<path d="M21.9049 22.012C22.8167 22.012 23.5559 21.2728 23.5559 20.361C23.5559 19.4491 22.8167 18.71 21.9049 18.71C20.9931 18.71 20.2539 19.4491 20.2539 20.361C20.2539 21.2728 20.9931 22.012 21.9049 22.012Z" fill="#687485"/>
<path d="M13.8264 11.5303C13.8264 11.6878 13.6356 11.7666 13.524 11.6551L13.4129 11.5443L12.6625 10.7954C12.5961 10.729 12.5935 10.623 12.6548 10.5536C12.6574 10.5507 12.6599 10.5481 12.6625 10.5455L13.524 9.68584C13.6356 9.57467 13.8264 9.65319 13.8264 9.8106V11.5303ZM13.141 7L8.47597 11.6551C8.36479 11.7666 8.17399 11.6878 8.17399 11.5303V7H6V16.8925C6.8581 16.8925 6 16.8925 6.8581 16.8925L10.8749 12.3295C10.8771 12.3273 10.8793 12.3251 10.8815 12.3233C10.9508 12.2609 11.0583 12.2627 11.1251 12.3295L11.8758 13.0784L15.1423 16.8925C16 16.8925 15.1423 16.8925 16 16.8925V7H13.141Z" fill="#687485"/>
</svg>
