<svg viewBox="0 0 40 40" fill="none" xmlns="http://www.w3.org/2000/svg">
<path fill-rule="evenodd" clip-rule="evenodd" d="M20 40C31.0459 40 40 31.0457 40 20C40 8.95435 31.0459 0 20 0C8.9541 0 0 8.95435 0 20C0 31.0457 8.9541 40 20 40ZM25.6445 19.2925C25.8911 19.5393 26.313 19.3647 26.313 19.0168V15.2144C26.313 14.8662 25.8911 14.6926 25.6445 14.9385L23.7397 16.8394L23.7227 16.8572C23.5874 17.0105 23.5928 17.2449 23.7397 17.3918L25.3989 19.0476L25.6445 19.2925ZM14.4834 19.2925L24.7979 9H31.1191V30.8726H29.2227L22.0005 22.4395L20.3408 20.7837C20.2686 20.7117 20.1753 20.6738 20.0806 20.6699C19.9814 20.6658 19.8804 20.6992 19.8018 20.7698L19.7871 20.7837L10.9062 30.8726H9.00879V9H13.8154V19.0168C13.8154 19.3647 14.2373 19.5393 14.4834 19.2925Z" fill="#705BE7"/>
</svg>
